HIERARCHY
ROOT Hips
{
	OFFSET -3.958830 18.904000 13.208200
	CHANNELS 6 Xposition Yposition Zposition Zrotation Yrotation Xrotation 
	JOINT LHipJoint
	{
		OFFSET 0.000000 0.000000 0.000000
		CHANNELS 3 Zrotation Yrotation Xrotation
		JOINT LeftUpLeg
		{
			OFFSET 1.800000 -1.400000 0.085000
			CHANNELS 3 Zrotation Yrotation Xrotation
			JOINT LeftLeg
			{
				OFFSET 2.215000 -6.000000 0.000000
				CHANNELS 3 Zrotation Yrotation Xrotation
				JOINT LeftFoot
				{
					OFFSET 2.500000 -6.900000 0.000000
					CHANNELS 3 Zrotation Yrotation Xrotation
					JOINT LeftToeBase
					{
						OFFSET 0.200000 -0.500000 1.950000
						CHANNELS 3 Zrotation Yrotation Xrotation
						End Site
						{
							OFFSET 0.000000 0.000000 0.000000
						}
					}
				}
			}
		}
	}
	JOINT RHipJoint
	{
		OFFSET 0.000000 0.000000 0.000000
		CHANNELS 3 Zrotation Yrotation Xrotation
		JOINT RightUpLeg
		{
			OFFSET -1.800000 -1.400000 0.085000
			CHANNELS 3 Zrotation Yrotation Xrotation
			JOINT RightLeg
			{
				OFFSET -2.215000 -6.000000 0.000000
				CHANNELS 3 Zrotation Yrotation Xrotation
				JOINT RightFoot
				{
					OFFSET -2.500000 -6.900000 0.000000
					CHANNELS 3 Zrotation Yrotation Xrotation
					JOINT RightToeBase
					{
						OFFSET -0.200000 -0.500000 1.950000
						CHANNELS 3 Zrotation Yrotation Xrotation
						End Site
						{
							OFFSET 0.000000 0.000000 0.000000
						}
					}
				}
			}
		}
	}
	JOINT LowerBack
	{
		OFFSET 0.000000 0.000000 0.000000
		CHANNELS 3 Zrotation Yrotation Xrotation
		JOINT Spine
		{
			OFFSET -0.087000 1.940000 -0.288900
			CHANNELS 3 Zrotation Yrotation Xrotation
			JOINT Spine1
			{
				OFFSET 0.000000 1.950000 0.060000
				CHANNELS 3 Zrotation Yrotation Xrotation
				JOINT Neck
				{
					OFFSET 0.000000 0.000000 0.000000
					CHANNELS 3 Zrotation Yrotation Xrotation
					JOINT Neck1
					{
						OFFSET 0.000000 1.600000 0.340000
						CHANNELS 3 Zrotation Yrotation Xrotation
						JOINT Head
						{
							OFFSET 0.000000 1.667000 -0.240000
							CHANNELS 3 Zrotation Yrotation Xrotation
							End Site
							{
								OFFSET 0.000000 0.000000 0.000000
							}
						}
					}
				}
				JOINT LeftShoulder
				{
					OFFSET 0.000000 0.000000 0.000000
					CHANNELS 3 Zrotation Yrotation Xrotation
					JOINT LeftArm
					{
						OFFSET 2.700000 1.550000 -0.730000
						CHANNELS 3 Zrotation Yrotation Xrotation
						JOINT LeftForeArm
						{
							OFFSET 5.450000 0.000000 0.000000
							CHANNELS 3 Zrotation Yrotation Xrotation
							JOINT LeftHand
							{
								OFFSET 3.450000 0.000000 0.000000
								CHANNELS 3 Zrotation Yrotation Xrotation
								JOINT LeftHandIndex1
								{
									OFFSET 0.750000 0.000000 0.000000
									CHANNELS 3 Zrotation Yrotation Xrotation
									End Site
									{
										OFFSET 0.000000 0.000000 0.000000
									}
								}
							}
						}
					}
				}
				JOINT RightShoulder
				{
					OFFSET 0.000000 0.000000 0.000000
					CHANNELS 3 Zrotation Yrotation Xrotation
					JOINT RightArm
					{
						OFFSET -2.700000 1.550000 -0.730000
						CHANNELS 3 Zrotation Yrotation Xrotation
						JOINT RightForeArm
						{
							OFFSET -5.450000 0.000000 0.000000
							CHANNELS 3 Zrotation Yrotation Xrotation
							JOINT RightHand
							{
								OFFSET -3.450000 0.000000 0.000000
								CHANNELS 3 Zrotation Yrotation Xrotation
								JOINT RightHandIndex1
								{
									OFFSET -0.750000 0.000000 0.000000
									CHANNELS 3 Zrotation Yrotation Xrotation
									End Site
									{
										OFFSET 0.000000 0.000000 0.000000
									}
								}
							}
						}
					}
				}
			}
		}
	}
}
MOTION
Frames: 14
Frame Time: 0.016667
-0.227180 17.368510 -3.777250 -0.029326 -2.757231 -7.734708 -15.395698 13.473590 3.948596 -0.881507 3.706234 23.986740 -8.896192 7.986407 4.817211 0.763001 6.702745 2.360595 0.091720 0.040190 0.091100 18.234173 -9.260044 3.270703 4.423941 3.681732 -37.586823 3.331599 -4.179449 20.468686 0.111338 -1.876490 3.574220 0.065520 0.059220 0.086870 -3.214999 -4.206863 -8.232345 10.291835 -7.198883 11.367759 -5.083390 -5.847299 8.126420 2.568139 -2.817051 -12.784472 -9.798296 3.224875 36.093507 -2.846310 2.987340 -8.062270 -28.435459 -21.708512 4.993092 -29.260380 -26.908172 0.282019 -0.762570 -55.782261 0.334120 -3.486935 3.140639 0.269120 0.026720 0.074150 0.020780 23.194188 19.534783 12.888868 29.609414 -7.233103 -3.201125 9.761247 15.180163 0.472624 2.393496 -1.184269 -0.125070 0.138460 0.058700 -0.096250 
-0.216180 17.314440 -3.745380 0.167700 -3.497159 -7.524428 -15.415102 13.470186 3.961418 -1.298172 3.905287 24.141304 -8.957181 8.001141 4.807191 0.756825 6.706222 2.350038 0.121310 0.078690 0.104600 18.227726 -9.156679 3.334528 5.084911 3.872960 -37.981809 3.148614 -3.644407 17.603851 0.141881 -1.512752 3.701078 0.087890 0.045380 0.091770 -3.172655 -4.329261 -8.270542 10.331172 -7.309491 12.027306 -4.578323 -5.961950 7.710639 2.412348 -3.406163 -12.577984 -10.670143 3.723662 35.101149 -2.648470 3.210450 -9.648610 -28.778810 -21.418315 4.669220 -28.673128 -27.173988 0.283720 -0.678597 -55.933873 0.321698 -3.478732 3.145375 0.283980 0.011510 0.092200 0.026120 23.955260 19.551416 12.799575 28.195759 -6.918926 -3.099102 8.344890 15.526777 0.451157 2.378187 -1.192587 -0.118050 0.144390 0.050210 -0.096950 
-0.202960 17.194610 -3.647950 0.813361 -4.352772 -6.635782 -15.496828 13.449574 3.980794 -2.121067 4.299814 24.508974 -9.247236 8.049535 4.500370 0.780460 6.742628 2.340197 0.128520 0.098270 0.093730 18.181821 -8.926936 3.446672 6.146156 4.100135 -38.866347 2.733230 -2.651837 11.293711 0.219044 -0.937084 3.922017 0.101100 0.059750 0.098440 -2.988157 -4.587799 -8.357597 9.219916 -7.382186 12.034171 -3.195654 -6.268812 7.363416 2.138125 -3.696923 -12.512706 -10.898208 4.201949 33.836621 -2.407630 3.570150 -10.092820 -28.566073 -21.346700 4.572439 -28.225073 -27.359573 0.292766 -0.183054 -55.368170 0.103486 -3.489473 3.160082 0.268990 0.022510 0.087700 0.036240 24.515240 19.652517 12.679562 26.662666 -6.612608 -3.122901 6.852675 16.657385 0.435514 2.355123 -1.221048 -0.112540 0.146900 0.048720 -0.086390 
-0.192090 17.083280 -3.519430 1.199443 -6.315803 -5.723115 -15.547465 13.348431 4.025921 -3.465475 4.940872 25.079476 -9.254994 7.936893 3.511720 0.821658 6.715021 2.346904 0.111890 0.085880 0.074740 18.171794 -8.666589 3.658791 8.145446 4.872111 -40.117593 2.114995 -1.926142 6.018773 0.267392 -0.593310 4.062349 0.084640 0.067190 0.100840 -2.894219 -4.729050 -8.547424 8.774582 -7.361443 12.213597 -2.179390 -6.376288 6.847773 2.055524 -3.603267 -13.005732 -10.775284 4.679544 34.197774 -2.049820 3.975870 -9.335300 -28.590206 -22.134746 5.026939 -27.317927 -26.676922 -0.270435 0.159597 -53.686570 -0.061910 -3.487136 3.183670 0.254990 0.028590 0.082430 0.035880 24.854052 20.543563 12.814026 25.901470 -5.771405 -3.013485 4.972134 16.809691 0.360766 2.365967 -1.224743 -0.103510 0.133820 0.053210 -0.077300 
-0.174360 16.996270 -3.364030 1.437619 -7.734727 -4.537597 -15.585958 13.254351 4.019968 -4.269667 5.325099 25.182761 -9.904141 8.038434 3.216599 0.858384 6.756976 2.353265 0.074180 0.052130 0.026370 18.168725 -8.436442 3.865727 9.501011 5.730260 -41.761744 2.905996 -1.633872 2.803348 0.310361 -0.485384 4.122779 0.071250 0.120050 0.096820 -2.836496 -4.824182 -8.684960 8.519565 -7.514948 11.977016 -1.103372 -6.709818 6.419401 1.860179 -3.513586 -13.298577 -10.476536 4.685791 33.994159 -1.532150 3.699310 -7.531780 -29.050446 -22.755309 5.545379 -27.361983 -26.124116 -0.441872 -1.151276 -51.389154 0.512261 -3.509643 3.214671 0.213210 0.063790 0.043010 0.046550 25.819627 21.179009 12.725364 25.079269 -4.820364 -2.989452 2.702232 17.069852 0.190231 2.366158 -1.246662 -0.112160 0.141360 0.069960 -0.054790 
-0.133040 16.917790 -3.185080 1.297219 -8.769642 -3.674991 -15.565004 13.233548 4.028957 -4.875643 5.569856 25.308901 -9.879934 8.151819 3.733303 0.878717 6.782760 2.350806 0.044190 0.014880 0.006210 18.198978 -8.288833 4.022129 10.167706 6.427917 -43.268905 4.300792 -1.696850 2.531986 0.329337 -0.451479 4.143345 0.047220 0.132480 0.091540 -2.911432 -4.944825 -8.786265 9.834981 -8.114054 12.125264 -0.847734 -7.251091 5.923929 1.978778 -3.923373 -14.119650 -11.389495 5.121699 34.186904 -1.985390 4.019730 -6.421710 -29.532068 -23.784626 6.313337 -27.348058 -25.568956 -0.598448 -3.542180 -47.135774 1.434468 -3.497999 3.245353 0.205080 0.072410 0.027990 0.042550 26.076352 22.552711 12.957241 24.770574 -3.762647 -2.952190 0.810609 16.584183 0.054911 2.385288 -1.239993 -0.118870 0.136780 0.082000 -0.052750 
-0.092880 16.867630 -2.989920 0.778688 -9.302216 -3.010513 -15.558185 13.291321 4.014176 -4.958777 5.544067 25.200954 -9.282290 8.276896 5.194668 0.888211 6.790904 2.342009 0.032170 0.000320 0.016260 18.202740 -8.179983 4.148803 10.318565 7.058708 -44.417374 5.422364 -1.942987 4.174381 0.324271 -0.448188 4.143083 0.026850 0.112350 0.088060 -2.922207 -5.132581 -8.859365 11.051885 -8.722139 12.249729 -0.027317 -7.949879 6.024122 2.200278 -4.007056 -15.182337 -11.886395 5.566221 35.126449 -2.786850 4.773570 -6.185990 -28.981928 -25.085254 7.342593 -28.538539 -25.169574 -0.220291 -5.837020 -42.026287 2.036848 -3.472344 3.233856 0.216620 0.062260 0.043100 0.030880 25.084664 24.084337 12.994704 25.151852 -2.085257 -3.141813 -1.094780 16.671462 -0.080482 2.406133 -1.211281 -0.115190 0.129250 0.081570 -0.060990 
-0.064580 16.822930 -2.782430 0.404058 -9.716922 -2.251237 -15.555184 13.368029 3.986875 -4.977097 5.297478 24.790709 -8.661286 8.373775 6.804740 0.882117 6.802970 2.340373 0.022860 -0.011630 0.011900 18.205614 -8.081019 4.247546 10.482507 7.577828 -45.900859 5.419047 -2.365175 8.002326 0.315859 -0.534438 4.107314 0.017610 0.115160 0.090050 -2.923388 -5.377511 -8.859700 12.029245 -9.655368 12.523264 0.735404 -8.922470 5.404079 2.232059 -4.534816 -15.541390 -12.888318 6.137712 34.686675 -3.443400 5.392560 -6.058360 -29.342217 -25.248478 7.811352 -29.667227 -24.366570 0.299927 -7.351236 -37.577419 2.248403 -3.481326 3.219087 0.217570 0.065770 0.042480 0.031170 25.462336 24.549653 12.711898 25.449809 -1.557822 -3.934387 -2.538391 18.609825 -0.282964 2.383246 -1.230533 -0.117330 0.127300 0.084450 -0.061630 
-0.036170 16.798090 -2.553710 0.127820 -10.558061 -1.713290 -15.545783 13.455347 3.967043 -5.108972 4.987120 24.049388 -8.624091 8.714881 9.404559 0.896913 6.873984 2.313363 0.006150 -0.031990 0.010510 18.204713 -8.019953 4.353655 10.768563 8.081013 -46.960395 4.724299 -2.872557 13.019888 0.281119 -0.775341 4.012605 -0.003320 0.110600 0.091710 -2.918252 -5.587690 -8.900972 12.763827 -10.458780 13.017477 1.302414 -9.697327 4.737825 2.409255 -4.493307 -16.180172 -13.013963 7.013246 35.475259 -3.690110 6.484440 -5.360320 -30.094493 -25.868930 8.465937 -30.585281 -22.992979 0.890890 -8.842810 -32.173779 2.279467 -3.497078 3.189331 0.221560 0.065680 0.047520 0.024340 25.863472 25.226205 12.485550 25.924668 -0.481642 -3.790981 -1.907950 17.223659 -0.206708 2.420097 -1.199299 -0.116040 0.114510 0.087220 -0.065750 
-0.024280 16.797900 -2.303060 -0.335885 -11.238918 -1.405794 -15.533719 13.539750 3.940487 -5.059828 4.656929 23.361362 -8.421451 9.030176 12.116457 0.919221 6.953128 2.276155 -0.002580 -0.045450 0.029850 18.201269 -7.991710 4.449261 10.943428 8.587171 -47.095723 3.925572 -3.305437 17.605334 0.215924 -1.118089 3.880328 -0.028030 0.079730 0.090600 -2.911705 -5.735509 -8.969574 13.363636 -11.034677 13.434785 1.468640 -10.192089 4.015835 2.766330 -3.915442 -16.682797 -12.285119 7.442460 37.478210 -4.121370 7.496170 -4.919560 -30.981833 -26.451393 9.027498 -31.823453 -21.006582 1.742267 -11.593902 -26.944576 2.480816 -3.498718 3.140540 0.241700 0.048930 0.072820 0.011210 25.922878 25.641112 12.148425 27.402561 0.352822 -3.920150 -0.619317 17.013958 -0.076682 2.447115 -1.159137 -0.109250 0.097420 0.080100 -0.078130 
-0.016930 16.798090 -2.040790 -0.585995 -11.587615 -1.177490 -15.504584 13.582992 3.852088 -4.786465 4.282013 22.233389 -8.530265 9.596249 16.033682 0.934857 7.156158 2.196576 -0.003880 -0.056270 0.046540 18.217925 -8.002444 4.542988 10.241651 9.083310 -47.250215 3.946662 -3.852325 21.636293 0.137935 -1.576240 3.700238 -0.039430 0.057830 0.093230 -2.966346 -5.724165 -8.989243 13.897033 -11.332989 13.641516 1.293948 -10.425289 3.619878 2.968542 -3.479135 -16.836787 -11.657462 7.498298 39.209670 -4.373120 7.864300 -4.618170 -31.655565 -26.839656 9.289424 -33.859671 -18.946229 2.707194 -14.075519 -21.335980 2.266439 -3.519331 3.080753 0.261970 0.037350 0.087490 -0.001820 26.045222 25.941747 11.708373 29.187501 1.604341 -3.810354 0.504981 15.821233 0.004292 2.478436 -1.121093 -0.108320 0.086410 0.081520 -0.092170 
-0.029700 16.808450 -1.787300 -0.578507 -12.657336 -1.142109 -15.483129 13.637935 3.757362 -4.521507 3.835431 20.350906 -9.412956 10.665481 21.160567 1.008379 7.520990 2.064531 -0.007180 -0.063880 0.055790 18.224496 -7.968311 4.731824 10.068732 10.080709 -47.202557 2.979176 -4.098671 25.802788 0.046556 -2.051773 3.528557 -0.059570 0.027150 0.083750 -2.980579 -5.753855 -9.112527 13.983342 -11.348854 14.605637 1.156931 -10.127517 2.441126 3.241358 -3.376999 -17.349338 -11.920394 7.727021 41.779761 -4.531370 8.063820 -3.973130 -33.599818 -27.117569 9.730306 -35.674314 -15.799899 2.895027 -15.410703 -16.363481 1.744975 -3.497752 3.033903 0.286470 0.010820 0.111190 -0.008150 27.452409 26.732753 11.493867 31.221144 2.431695 -3.900446 1.403830 14.858916 0.060448 2.511780 -1.089134 -0.101820 0.078650 0.075020 -0.098150 
-0.064380 16.825510 -1.522610 -0.314550 -13.716068 -1.288007 -15.494639 13.726225 3.631752 -3.856613 3.067895 17.824109 -10.406610 12.270675 27.642871 1.124573 8.144666 1.841246 0.026150 -0.029440 0.082570 18.204761 -7.903449 4.893977 9.440302 11.077784 -46.833728 2.317202 -4.280329 29.481710 -0.069570 -2.525869 3.351422 -0.054130 -0.019490 0.072990 -2.908505 -5.899550 -9.195826 13.526537 -11.165934 15.915141 1.656762 -9.647267 0.601832 3.297164 -4.424419 -17.293427 -14.501559 8.805807 43.420928 -4.456630 8.184800 -4.949900 -35.459063 -25.984995 9.361144 -38.191485 -12.772748 2.956256 -16.704958 -11.998137 1.178851 -3.460115 2.996697 0.330530 -0.039600 0.152690 -0.007700 29.614803 26.697366 11.178645 32.994478 2.527103 -4.348619 2.429983 14.705029 0.119855 2.522925 -1.066005 -0.089470 0.084100 0.058450 -0.104510 
-0.093940 16.840780 -1.284490 -0.269392 -14.100233 -1.322849 -15.492556 13.738566 3.451267 -3.081623 1.796969 13.844063 -10.492102 14.077588 35.679402 1.286152 8.997857 1.550728 0.035310 -0.020660 0.095030 18.212161 -7.811293 5.105082 8.595220 12.356587 -47.117257 1.970460 -4.579685 33.517350 -0.195756 -3.136200 3.130715 -0.060370 -0.041220 0.070650 -2.908866 -5.923585 -9.251189 13.299114 -11.151173 17.650870 1.704843 -9.253768 -1.031087 3.314159 -5.072658 -17.130112 -15.938969 9.785402 44.246221 -4.656530 8.748640 -5.522730 -37.162877 -25.175705 9.141942 -40.207566 -9.704429 2.521664 -16.812460 -8.156373 0.524209 -3.452005 2.963600 0.354740 -0.063680 0.175420 -0.012700 31.486085 26.664503 10.692511 35.229852 3.044774 -4.859988 3.029526 14.718631 0.117189 2.529110 -1.050247 -0.082020 0.087140 0.057070 -0.108950 
